# xmcd
#
# Track frame offsets: 
#        182
#        19377
#        34730
#        52940
#        71917
#        95282
#        111032
#        113650
#        133260
#        153720
#        173952
#
# Disc length: 2573 seconds
#
# Revision: 20
# Processed by: cddbd v1.5.2PL0 Copyright (c) Steve Scherf et al.
# Submitted via: ExactAudioCopy v0.90b4
#
DISCID=960a0b0b
DTITLE=Vandenberg - Best Of Vanderberg
DYEAR=1988
DGENRE=Heavy Metal
TTITLE0=Your Love Is In Vain
TTITLE1=Nothing To Lose
TTITLE2=Rock On
TTITLE3=Burning Heart
TTITLE4=Wait
TTITLE5=Welcome To The Club
TTITLE6=Prelude Mortale
TTITLE7=Alibi
TTITLE8=Different Worlds
TTITLE9=Pedal To The Metal
TTITLE10=Fighting Against The World
EXTD=
EXTT0=
EXTT1=
EXTT2=
EXTT3=
EXTT4=
EXTT5=
EXTT6=
EXTT7=
EXTT8=
EXTT9=
EXTT10=
PLAYORDER=
